<mxfile host="app.diagrams.net" modified="2024-04-22T14:03:46.678Z" agent="Mozilla/5.0 (Windows NT 10.0; Win64; x64) AppleWebKit/537.36 (KHTML, like Gecko) Chrome/124.0.0.0 Safari/537.36" etag="XXbFPAtXc0zTjRoIYaZn" version="24.2.7" type="github">
  <diagram name="Page-1" id="55a83fd1-7818-8e21-69c5-c3457e3827bb">
    <mxGraphModel dx="1344" dy="690" grid="1" gridSize="10" guides="1" tooltips="1" connect="1" arrows="1" fold="1" page="1" pageScale="1" pageWidth="1100" pageHeight="850" background="none" math="0" shadow="0">
      <root>
        <mxCell id="0" />
        <mxCell id="1" parent="0" />
        <mxCell id="69ecfefc5c41e42c-18" style="edgeStyle=none;rounded=0;html=1;labelBackgroundColor=none;endArrow=none;strokeWidth=2;fontFamily=Verdana;fontSize=22;exitX=0;exitY=0.75;exitDx=0;exitDy=0;" parent="1" source="UNuN4_SD1Z8VuVxVRk6X-3" target="69ecfefc5c41e42c-3" edge="1">
          <mxGeometry relative="1" as="geometry">
            <mxPoint x="525.4285714285716" y="465" as="sourcePoint" />
          </mxGeometry>
        </mxCell>
        <mxCell id="69ecfefc5c41e42c-2" value="Internet" style="image;html=1;labelBackgroundColor=#ffffff;image=img/lib/clip_art/networking/Cloud_128x128.png;rounded=1;shadow=0;comic=0;strokeWidth=2;fontSize=22;labelPosition=right;verticalLabelPosition=middle;align=right;verticalAlign=middle;" parent="1" vertex="1">
          <mxGeometry x="630" y="140" width="80" height="80" as="geometry" />
        </mxCell>
        <mxCell id="69ecfefc5c41e42c-19" style="edgeStyle=none;rounded=0;html=1;labelBackgroundColor=none;endArrow=none;strokeWidth=2;fontFamily=Verdana;fontSize=22;entryX=0;entryY=0.5;entryDx=0;entryDy=0;exitX=1;exitY=0.5;exitDx=0;exitDy=0;" parent="1" source="UNuN4_SD1Z8VuVxVRk6X-1" target="69ecfefc5c41e42c-2" edge="1">
          <mxGeometry relative="1" as="geometry">
            <mxPoint x="630" y="270" as="targetPoint" />
          </mxGeometry>
        </mxCell>
        <mxCell id="69ecfefc5c41e42c-3" value="Firewall/Router: ER605 (TL-R605) V2" style="image;html=1;labelBackgroundColor=#ffffff;image=img/lib/clip_art/networking/Firewall_128x128.png;rounded=1;shadow=0;comic=0;strokeWidth=2;fontSize=22;labelPosition=left;verticalLabelPosition=middle;align=right;verticalAlign=middle;" parent="1" vertex="1">
          <mxGeometry x="470" y="290" width="80" height="80" as="geometry" />
        </mxCell>
        <mxCell id="69ecfefc5c41e42c-6" value="Printer" style="image;html=1;labelBackgroundColor=#ffffff;image=img/lib/clip_art/computers/Printer_128x128.png;rounded=1;shadow=0;comic=0;strokeWidth=2;fontSize=22" parent="1" vertex="1">
          <mxGeometry x="40" y="540" width="80" height="80" as="geometry" />
        </mxCell>
        <mxCell id="69ecfefc5c41e42c-8" value="Mobile" style="image;html=1;labelBackgroundColor=#ffffff;image=img/lib/clip_art/telecommunication/iPhone_128x128.png;rounded=1;shadow=0;comic=0;strokeWidth=2;fontSize=22" parent="1" vertex="1">
          <mxGeometry x="559" y="680" width="80" height="80" as="geometry" />
        </mxCell>
        <mxCell id="69ecfefc5c41e42c-9" value="Laptop" style="image;html=1;labelBackgroundColor=#ffffff;image=img/lib/clip_art/computers/Netbook_128x128.png;rounded=1;shadow=0;comic=0;strokeColor=#000000;strokeWidth=2;fillColor=#FFFFFF;fontSize=22;fontColor=#000000;" parent="1" vertex="1">
          <mxGeometry x="270" y="660" width="80" height="80" as="geometry" />
        </mxCell>
        <mxCell id="69ecfefc5c41e42c-11" value="" style="html=1;fillColor=#CCCCCC;strokeColor=#6881B3;gradientColor=none;gradientDirection=north;strokeWidth=2;shape=mxgraph.networks.comm_link_edge;html=1;labelBackgroundColor=none;endArrow=none;fontFamily=Verdana;fontSize=22;fontColor=#000000;entryX=-0.041;entryY=0.945;entryDx=0;entryDy=0;entryPerimeter=0;" parent="1" source="69ecfefc5c41e42c-6" target="UNuN4_SD1Z8VuVxVRk6X-11" edge="1">
          <mxGeometry width="100" height="100" relative="1" as="geometry">
            <mxPoint x="190" y="490" as="sourcePoint" />
            <mxPoint x="380" y="602.0588235294117" as="targetPoint" />
            <Array as="points">
              <mxPoint x="230" y="570" />
            </Array>
          </mxGeometry>
        </mxCell>
        <mxCell id="69ecfefc5c41e42c-16" value="" style="html=1;fillColor=#CCCCCC;strokeColor=#6881B3;gradientColor=none;gradientDirection=north;strokeWidth=2;shape=mxgraph.networks.comm_link_edge;html=1;labelBackgroundColor=none;endArrow=none;fontFamily=Verdana;fontSize=22;fontColor=#000000;entryX=0.953;entryY=1.04;entryDx=0;entryDy=0;entryPerimeter=0;" parent="1" source="69ecfefc5c41e42c-8" target="UNuN4_SD1Z8VuVxVRk6X-11" edge="1">
          <mxGeometry width="100" height="100" relative="1" as="geometry">
            <mxPoint x="400" y="761.9565217391305" as="sourcePoint" />
            <mxPoint x="610" y="755.9677419354839" as="targetPoint" />
          </mxGeometry>
        </mxCell>
        <mxCell id="69ecfefc5c41e42c-17" value="" style="html=1;fillColor=#CCCCCC;strokeColor=#6881B3;gradientColor=none;gradientDirection=north;strokeWidth=2;shape=mxgraph.networks.comm_link_edge;html=1;labelBackgroundColor=none;endArrow=none;fontFamily=Verdana;fontSize=22;fontColor=#000000;" parent="1" source="69ecfefc5c41e42c-9" edge="1">
          <mxGeometry width="100" height="100" relative="1" as="geometry">
            <mxPoint x="-170" y="791.9565217391305" as="sourcePoint" />
            <mxPoint x="500" y="560" as="targetPoint" />
            <Array as="points">
              <mxPoint x="460" y="640" />
            </Array>
          </mxGeometry>
        </mxCell>
        <mxCell id="UNuN4_SD1Z8VuVxVRk6X-1" value="Modem" style="image;html=1;image=img/lib/clip_art/networking/Modem_128x128.png;labelPosition=left;verticalLabelPosition=middle;align=right;verticalAlign=middle;fontSize=22;" vertex="1" parent="1">
          <mxGeometry x="470" y="140" width="80" height="80" as="geometry" />
        </mxCell>
        <mxCell id="UNuN4_SD1Z8VuVxVRk6X-2" style="edgeStyle=none;rounded=0;html=1;labelBackgroundColor=none;endArrow=none;strokeWidth=2;fontFamily=Verdana;fontSize=22;entryX=0.5;entryY=0;entryDx=0;entryDy=0;exitX=0.5;exitY=1;exitDx=0;exitDy=0;" edge="1" parent="1" source="UNuN4_SD1Z8VuVxVRk6X-1" target="69ecfefc5c41e42c-3">
          <mxGeometry relative="1" as="geometry">
            <mxPoint x="570" y="190" as="sourcePoint" />
            <mxPoint x="640" y="190" as="targetPoint" />
          </mxGeometry>
        </mxCell>
        <mxCell id="UNuN4_SD1Z8VuVxVRk6X-3" value="Network Controller: OC200" style="image;html=1;labelBackgroundColor=#ffffff;image=img/lib/clip_art/networking/Wireless_Router_128x128.png;rounded=1;shadow=0;comic=0;strokeWidth=2;fontSize=22;textShadow=1;labelPosition=right;verticalLabelPosition=middle;align=left;verticalAlign=middle;" vertex="1" parent="1">
          <mxGeometry x="630" y="270" width="80" height="80" as="geometry" />
        </mxCell>
        <mxCell id="UNuN4_SD1Z8VuVxVRk6X-6" value="Main Switch: SG6654XHP" style="image;html=1;image=img/lib/clip_art/networking/Switch_128x128.png;fontSize=22;labelPosition=right;verticalLabelPosition=middle;align=left;verticalAlign=middle;" vertex="1" parent="1">
          <mxGeometry x="630" y="380" width="80" height="80" as="geometry" />
        </mxCell>
        <mxCell id="UNuN4_SD1Z8VuVxVRk6X-7" value="Access Points:&amp;nbsp;EAP683 LR" style="image;points=[];aspect=fixed;html=1;align=right;shadow=0;dashed=0;image=img/lib/allied_telesis/wireless/Access_Point_Indoor.svg;labelPosition=left;verticalLabelPosition=middle;verticalAlign=middle;fontSize=22;" vertex="1" parent="1">
          <mxGeometry x="340" y="390" width="60.33" height="90" as="geometry" />
        </mxCell>
        <mxCell id="UNuN4_SD1Z8VuVxVRk6X-8" style="edgeStyle=none;rounded=0;html=1;labelBackgroundColor=none;endArrow=none;strokeWidth=2;fontFamily=Verdana;fontSize=22;exitX=0.556;exitY=-0.002;exitDx=0;exitDy=0;entryX=0;entryY=0.75;entryDx=0;entryDy=0;exitPerimeter=0;" edge="1" parent="1" source="UNuN4_SD1Z8VuVxVRk6X-7" target="69ecfefc5c41e42c-3">
          <mxGeometry relative="1" as="geometry">
            <mxPoint x="610" y="390" as="sourcePoint" />
            <mxPoint x="530" y="390" as="targetPoint" />
          </mxGeometry>
        </mxCell>
        <mxCell id="UNuN4_SD1Z8VuVxVRk6X-9" style="edgeStyle=none;rounded=0;html=1;labelBackgroundColor=none;endArrow=none;strokeWidth=2;fontFamily=Verdana;fontSize=22;exitX=0;exitY=0.5;exitDx=0;exitDy=0;entryX=1;entryY=1;entryDx=0;entryDy=0;" edge="1" parent="1" source="UNuN4_SD1Z8VuVxVRk6X-6" target="69ecfefc5c41e42c-3">
          <mxGeometry relative="1" as="geometry">
            <mxPoint x="800" y="440" as="sourcePoint" />
            <mxPoint x="800" y="386" as="targetPoint" />
          </mxGeometry>
        </mxCell>
        <mxCell id="UNuN4_SD1Z8VuVxVRk6X-11" value="Access Points: EAP615-Wall" style="image;points=[];aspect=fixed;html=1;align=right;shadow=0;dashed=0;image=img/lib/allied_telesis/wireless/Access_Point_Indoor.svg;labelPosition=left;verticalLabelPosition=middle;verticalAlign=middle;fontSize=22;" vertex="1" parent="1">
          <mxGeometry x="479.83000000000004" y="460" width="60.33" height="90" as="geometry" />
        </mxCell>
        <mxCell id="UNuN4_SD1Z8VuVxVRk6X-14" style="edgeStyle=none;rounded=0;html=1;labelBackgroundColor=none;endArrow=none;strokeWidth=2;fontFamily=Verdana;fontSize=22;exitX=0.495;exitY=-0.05;exitDx=0;exitDy=0;entryX=0.5;entryY=1;entryDx=0;entryDy=0;exitPerimeter=0;" edge="1" parent="1" source="UNuN4_SD1Z8VuVxVRk6X-11" target="69ecfefc5c41e42c-3">
          <mxGeometry relative="1" as="geometry">
            <mxPoint x="630" y="480" as="sourcePoint" />
            <mxPoint x="550" y="420" as="targetPoint" />
          </mxGeometry>
        </mxCell>
        <mxCell id="UNuN4_SD1Z8VuVxVRk6X-15" value="Lab" style="image;html=1;image=img/lib/clip_art/computers/Server_128x128.png;fontSize=22;" vertex="1" parent="1">
          <mxGeometry x="639" y="500" width="80" height="80" as="geometry" />
        </mxCell>
        <mxCell id="UNuN4_SD1Z8VuVxVRk6X-16" style="edgeStyle=none;rounded=0;html=1;labelBackgroundColor=none;endArrow=none;strokeWidth=2;fontFamily=Verdana;fontSize=22;exitX=0.5;exitY=0;exitDx=0;exitDy=0;entryX=0.604;entryY=0.986;entryDx=0;entryDy=0;entryPerimeter=0;" edge="1" parent="1" source="UNuN4_SD1Z8VuVxVRk6X-15" target="UNuN4_SD1Z8VuVxVRk6X-6">
          <mxGeometry relative="1" as="geometry">
            <mxPoint x="640" y="440" as="sourcePoint" />
            <mxPoint x="560" y="380" as="targetPoint" />
          </mxGeometry>
        </mxCell>
      </root>
    </mxGraphModel>
  </diagram>
</mxfile>
